<svg id='Copy_to_Clipboard_24' width='24' height='24' viewBox='0 0 24 24' xmlns='http://www.w3.org/2000/svg' xmlns:xlink='http://www.w3.org/1999/xlink'><rect width='24' height='24' stroke='none' fill='#000000' opacity='0'/>
<g transform="matrix(0.67 0 0 0.67 12 12)" >
<path style="stroke: none; stroke-width: 1; stroke-dasharray: none; stroke-linecap: butt; stroke-dashoffset: 0; stroke-linejoin: miter; stroke-miterlimit: 4; fill: rgb(184,134,11); fill-rule: nonzero; opacity: 1;" transform=" translate(-17, -15)" d="M 15 0 C 13.35499 0 12 1.3549904 12 3 L 8 3 C 6.346 3 5 4.346 5 6 L 5 23 C 5 24.654 6.346 26 8 26 L 22 26 C 23.654 26 25 24.654 25 23 L 25 6 C 25 4.346 23.654 3 22 3 L 18 3 C 18 1.3549904 16.64501 0 15 0 z M 15 2 C 15.564129 2 16 2.4358706 16 3 C 16 3.5641294 15.564129 4 15 4 C 14.435871 4 14 3.5641294 14 3 C 14 2.4358706 14.435871 2 15 2 z M 8 5 L 12 5 L 12 6 C 12 6.552 12.448 7 13 7 L 17 7 C 17.552 7 18 6.552 18 6 L 18 5 L 22 5 C 22.551 5 23 5.449 23 6 L 23 23 C 23 23.551 22.551 24 22 24 L 8 24 C 7.449 24 7 23.551 7 23 L 7 6 C 7 5.449 7.449 5 8 5 z M 12 12 C 11.447715250169207 12 11 12.447715250169207 11 13 C 11 13.552284749830793 11.447715250169207 14 12 14 C 12.552284749830793 14 13 13.552284749830793 13 13 C 13 12.447715250169207 12.552284749830793 12 12 12 z M 16 12 C 15.447715250169207 12 15 12.447715250169207 15 13 C 15 13.552284749830793 15.447715250169207 14 16 14 C 16.552284749830793 14 17 13.552284749830793 17 13 C 17 12.447715250169207 16.552284749830793 12 16 12 z M 20 12 C 19.447715250169207 12 19 12.447715250169207 19 13 C 19 13.552284749830793 19.447715250169207 14 20 14 C 20.552284749830793 14 21 13.552284749830793 21 13 C 21 12.447715250169207 20.552284749830793 12 20 12 z M 28 12 C 27.447715250169207 12 27 12.447715250169207 27 13 C 27 13.552284749830793 27.447715250169207 14 28 14 C 28.552284749830793 14 29 13.552284749830793 29 13 C 29 12.447715250169207 28.552284749830793 12 28 12 z M 12 16 C 11.447715250169207 16 11 16.447715250169207 11 17 C 11 17.552284749830793 11.447715250169207 18 12 18 C 12.552284749830793 18 13 17.552284749830793 13 17 C 13 16.447715250169207 12.552284749830793 16 12 16 z M 28 16 C 27.447715250169207 16 27 16.447715250169207 27 17 C 27 17.552284749830793 27.447715250169207 18 28 18 C 28.552284749830793 18 29 17.552284749830793 29 17 C 29 16.447715250169207 28.552284749830793 16 28 16 z M 12 20 C 11.447715250169207 20 11 20.447715250169207 11 21 C 11 21.552284749830793 11.447715250169207 22 12 22 C 12.552284749830793 22 13 21.552284749830793 13 21 C 13 20.447715250169207 12.552284749830793 20 12 20 z M 28 20 C 27.447715250169207 20 27 20.447715250169207 27 21 C 27 21.552284749830793 27.447715250169207 22 28 22 C 28.552284749830793 22 29 21.552284749830793 29 21 C 29 20.447715250169207 28.552284749830793 20 28 20 z M 28 24 C 27.447715250169207 24 27 24.447715250169207 27 25 C 27 25.552284749830793 27.447715250169207 26 28 26 C 28.552284749830793 26 29 25.552284749830793 29 25 C 29 24.447715250169207 28.552284749830793 24 28 24 z M 12 28 C 11.447715250169207 28 11 28.447715250169207 11 29 C 11 29.552284749830793 11.447715250169207 30 12 30 C 12.552284749830793 30 13 29.552284749830793 13 29 C 13 28.447715250169207 12.552284749830793 28 12 28 z M 16 28 C 15.447715250169207 28 15 28.447715250169207 15 29 C 15 29.552284749830793 15.447715250169207 30 16 30 C 16.552284749830793 30 17 29.552284749830793 17 29 C 17 28.447715250169207 16.552284749830793 28 16 28 z M 20 28 C 19.447715250169207 28 19 28.447715250169207 19 29 C 19 29.552284749830793 19.447715250169207 30 20 30 C 20.552284749830793 30 21 29.552284749830793 21 29 C 21 28.447715250169207 20.552284749830793 28 20 28 z M 24 28 C 23.447715250169207 28 23 28.447715250169207 23 29 C 23 29.552284749830793 23.447715250169207 30 24 30 C 24.552284749830793 30 25 29.552284749830793 25 29 C 25 28.447715250169207 24.552284749830793 28 24 28 z M 28 28 C 27.447715250169207 28 27 28.447715250169207 27 29 C 27 29.552284749830793 27.447715250169207 30 28 30 C 28.552284749830793 30 29 29.552284749830793 29 29 C 29 28.447715250169207 28.552284749830793 28 28 28 z" stroke-linecap="round" />
</g>
</svg>
