<?xml version="1.0" encoding="UTF-8"?>
<svg xmlns="http://www.w3.org/2000/svg" id="Layer_1" data-name="Layer 1" width="512" height="512" viewBox="0 0 24 24"><path fill="#b8860b" stroke="#b8860b" stroke-width="0.5" d="M23.045,8.034L13.545,.566c-.908-.715-2.182-.715-3.09,0L.955,8.034c-.607,.477-.955,1.193-.955,1.966v14H5V12.5c0-.827,.673-1.5,1.5-1.5h11c.827,0,1.5,.673,1.5,1.5v11.5h5V10c0-.772-.348-1.489-.955-1.966Zm-.045,14.966h-3V12.5c0-1.379-1.121-2.5-2.5-2.5H6.5c-1.379,0-2.5,1.121-2.5,2.5v10.5H1V10c0-.464,.209-.894,.572-1.179L11.072,1.354c.547-.43,1.309-.43,1.855,0l9.5,7.468c.363,.285,.572,.715,.572,1.179v13Zm-7.486-7.97c-.204-.616-.776-1.03-1.425-1.03h-4.178c-.648,0-1.221,.414-1.425,1.031l-1.26,3.823c-.15,.453-.227,.928-.227,1.409v1.736h1v2h1v-2h6v2h1v-2h1v-1.736c0-.481-.076-.956-.227-1.408l-1.26-3.825Zm-6.078,.314c.068-.206,.26-.345,.476-.345h4.178c.216,0,.407,.139,.476,.344l.875,2.656h-6.879l.875-2.655Zm6.564,5.655H8v-.736c0-.375,.06-.743,.176-1.096l.055-.168h7.537l.056,.169c.116,.352,.176,.72,.176,1.095v.736Z"/></svg>