<?xml version="1.0"?>
<svg xmlns="http://www.w3.org/2000/svg" id="Layer_1" data-name="Layer 1" viewBox="0 0 512 512" width="512" height="512"><title>Garage2</title><g id="_Group_2" data-name=" Group 2"><polygon points="479.46 158.45 479.46 488.81 431.83 488.81 431.83 253.7 431.83 206.07 80.17 206.07 80.17 253.7 80.17 488.81 32.54 488.81 32.54 158.45 256 23.19 479.46 158.45" style="fill:#00acea"/><rect x="80.17" y="206.07" width="351.66" height="47.63" style="fill:#fedb41"/><polygon points="389.15 452.07 389.15 488.81 335.76 488.81 335.76 452.38 335.76 452.07 389.15 452.07" style="fill:#00acea"/><path d="M389.15,428.52v23.55H122.85V386.33a28.261,28.261,0,0,1,9.98-21.55l9.8-9.12h230.5v.31l7.16,7.66a28.218,28.218,0,0,1,8.86,20.54Zm-27.64-21.67a15.381,15.381,0,0,0-15.38-15.39h-4.62a15.39,15.39,0,0,0,0,30.78h4.62a15.381,15.381,0,0,0,15.38-15.39ZM296.63,421.9V391.79H215.37V421.9ZM185.87,406.85a15.381,15.381,0,0,0-15.38-15.39h-4.62a15.39,15.39,0,0,0,0,30.78h4.62a15.381,15.381,0,0,0,15.38-15.39Z" style="fill:#00efd1"/><path d="M351.62,297.61l21.51,58.05H142.63l21.51-58.05a18.843,18.843,0,0,1,17.67-12.29H333.96A18.82,18.82,0,0,1,351.62,297.61Z" style="fill:#00acea"/><path d="M346.13,391.46a15.39,15.39,0,0,1,0,30.78h-4.62a15.39,15.39,0,0,1,0-30.78Z" style="fill:#fedb41"/><rect x="215.37" y="391.79" width="81.26" height="30.11" style="fill:#00acea"/><path d="M170.49,391.46a15.39,15.39,0,0,1,0,30.78h-4.62a15.39,15.39,0,0,1,0-30.78Z" style="fill:#fedb41"/><polygon points="176.24 452.38 176.24 488.81 122.85 488.81 122.85 452.07 176.24 452.07 176.24 452.38" style="fill:#00acea"/><path d="M483.373,151.606,260.028,16.346a7.9,7.9,0,0,0-8.228,0L28.6,151.606A7.769,7.769,0,0,0,25,158.45V488.81c0,4.419,3.122,8.19,7.54,8.19H80.17A8.021,8.021,0,0,0,88,488.81V262H424V488.81a8.021,8.021,0,0,0,7.83,8.19h47.63c4.418,0,7.54-3.771,7.54-8.19V158.45A7.8,7.8,0,0,0,483.373,151.606ZM88,246V214H424v32ZM471,481H440V206.07a8.206,8.206,0,0,0-8.17-8.07H80.17A8.206,8.206,0,0,0,72,206.07V481H41V162.959L256,32.542,471,162.959Z" style="fill:#083863"/><path d="M380.263,351.886l-21.138-57.209A27.073,27.073,0,0,0,333.96,277H181.81a27.1,27.1,0,0,0-25.171,17.67l-20.85,56.348-8.208,7.748A36.21,36.21,0,0,0,115,386.33V488.81a8.038,8.038,0,0,0,7.85,8.19h53.39a7.963,7.963,0,0,0,7.76-8.19V460H328v28.81a7.963,7.963,0,0,0,7.76,8.19h53.39a8.038,8.038,0,0,0,7.85-8.19V384.17a36.276,36.276,0,0,0-11.1-26.177ZM171.641,300.4A11.2,11.2,0,0,1,181.81,293H333.96a11.176,11.176,0,0,1,10.159,7.4L361.634,348H154.126ZM131,386.33a20.157,20.157,0,0,1,7.08-15.45c.094-.079.148.01.238-.074L145.777,364h223.59l5.079,5.263c.116.124.161.159.285.276A20.03,20.03,0,0,1,381,384.17V444H131ZM168,481H131V460h37Zm176,0V460h37v21Z" style="fill:#083863"/><path d="M170.49,383h-4.62a23.457,23.457,0,0,0-16.536,7.083A23.386,23.386,0,0,0,165.87,430h4.62a23.124,23.124,0,0,0,16.537-6.733A23.635,23.635,0,0,0,170.49,383Zm5.223,28.953A7.225,7.225,0,0,1,170.49,414h-4.62a7.292,7.292,0,0,1-7.38-7.27,7.737,7.737,0,0,1,2.157-5.394A7.511,7.511,0,0,1,165.87,399h4.62a7.54,7.54,0,0,1,7.38,7.56A7.735,7.735,0,0,1,175.713,411.953Z" style="fill:#083863"/><path d="M346.13,383h-4.62a23.462,23.462,0,0,0-16.537,7.083A23.387,23.387,0,0,0,341.51,430h4.62a23.118,23.118,0,0,0,16.536-6.733A23.635,23.635,0,0,0,346.13,383Zm5.223,28.954A7.229,7.229,0,0,1,346.13,414h-4.62a7.291,7.291,0,0,1-7.38-7.27,7.735,7.735,0,0,1,2.157-5.393A7.508,7.508,0,0,1,341.51,399h4.62a7.541,7.541,0,0,1,7.38,7.56A7.737,7.737,0,0,1,351.353,411.954Z" style="fill:#083863"/><path d="M304,392a8,8,0,0,0-8-8H215a8,8,0,0,0-8,8v30a8,8,0,0,0,8,8h81a8,8,0,0,0,8-8Zm-15,22H223V400h66Z" style="fill:#083863"/></g></svg>
