<?xml version="1.0" encoding="UTF-8" standalone="no"?>
<svg
   version="1.1"
   width="512"
   height="512"
   x="0"
   y="0"
   viewBox="0 0 512 512"
   style="enable-background:new 0 0 512 512"
   xml:space="preserve"
   class=""
   id="svg13"
   sodipodi:docname="garage-512x512.svg"
   inkscape:version="1.4.2 (ebf0e940, 2025-05-08)"
   inkscape:export-filename="favicon-192x192.png"
   inkscape:export-xdpi="36"
   inkscape:export-ydpi="36"
   xmlns:inkscape="http://www.inkscape.org/namespaces/inkscape"
   xmlns:sodipodi="http://sodipodi.sourceforge.net/DTD/sodipodi-0.dtd"
   xmlns="http://www.w3.org/2000/svg"
   xmlns:svg="http://www.w3.org/2000/svg"><defs
   id="defs13" /><sodipodi:namedview
   id="namedview13"
   pagecolor="#ffffff"
   bordercolor="#000000"
   borderopacity="0.25"
   inkscape:showpageshadow="2"
   inkscape:pageopacity="0.0"
   inkscape:pagecheckerboard="0"
   inkscape:deskcolor="#d1d1d1"
   inkscape:zoom="1.625"
   inkscape:cx="270.76923"
   inkscape:cy="254.46154"
   inkscape:window-width="2496"
   inkscape:window-height="1458"
   inkscape:window-x="72"
   inkscape:window-y="31"
   inkscape:window-maximized="0"
   inkscape:current-layer="g12" />
  <g
   id="g13">
    <g
   data-name="Group 2"
   id="g12">
      <path
   d="M479.46 158.45v330.36h-47.63V206.07H80.17v282.74H32.54V158.45L256 23.19l223.46 135.26z"
   fill="#e8e8e8"
   id="path1" />
      <path
   d="M80.17 206.07h351.66v47.63H80.17z"
   fill="#f8f8e8"
   id="path2" />
      <path
   d="M389.15 452.07v36.74h-53.39v-36.74h53.39z"
   fill="#606060"
   id="path3" />
      <path
   d="M389.15 428.52v23.55h-266.3v-65.74a28.261 28.261 0 0 1 9.98-21.55l9.8-9.12h230.5v.31l7.16 7.66a28.218 28.218 0 0 1 8.86 20.54Zm-27.64-21.67a15.381 15.381 0 0 0-15.38-15.39h-4.62a15.39 15.39 0 0 0 0 30.78h4.62a15.381 15.381 0 0 0 15.38-15.39Zm-64.88 15.05v-30.11h-81.26v30.11Zm-110.76-15.05a15.381 15.381 0 0 0-15.38-15.39h-4.62a15.39 15.39 0 0 0 0 30.78h4.62a15.381 15.381 0 0 0 15.38-15.39Z"
   fill="#b8b8b8"
   id="path4" />
      <path
   d="m 351.62,297.61 21.51,58.05 h -230.5 l 21.51,-58.05 a 18.843,18.843 0 0 1 17.67,-12.29 h 152.15 a 18.82,18.82 0 0 1 17.66,12.29 z"
   fill="#bfdbe9"
   id="path5" />
      <path
   d="M346.13 391.46a15.39 15.39 0 0 1 0 30.78h-4.62a15.39 15.39 0 0 1 0-30.78Z"
   fill="#f8f8e8"
   id="path6" />
      <path
   d="M215.37 391.79h81.26v30.11h-81.26z"
   fill="#b8b8b8"
   id="path7" />
      <path
   d="M170.49 391.46a15.39 15.39 0 0 1 0 30.78h-4.62a15.39 15.39 0 0 1 0-30.78Z"
   fill="#f8f8e8"
   id="path8" />
      <path
   d="M176.24 452.38v36.43h-53.39v-36.74h53.39v.31z"
   fill="#606060"
   id="path9" />
      <path
   d="M483.373 151.606 260.028 16.346a7.9 7.9 0 0 0-8.228 0L28.6 151.606a7.769 7.769 0 0 0-3.6 6.844v330.36c0 4.419 3.122 8.19 7.54 8.19h47.63a8.021 8.021 0 0 0 7.83-8.19V262h336v226.81a8.021 8.021 0 0 0 7.83 8.19h47.63c4.418 0 7.54-3.771 7.54-8.19V158.45a7.8 7.8 0 0 0-3.627-6.844ZM88 246v-32h336v32Zm383 235h-31V206.07a8.206 8.206 0 0 0-8.17-8.07H80.17a8.206 8.206 0 0 0-8.17 8.07V481H41V162.959L256 32.542l215 130.417Z"
   fill="#b8860b"
   id="path10" />
      <path
   d="m380.263 351.886-21.138-57.209A27.073 27.073 0 0 0 333.96 277H181.81a27.1 27.1 0 0 0-25.171 17.67l-20.85 56.348-8.208 7.748A36.21 36.21 0 0 0 115 386.33v102.48a8.038 8.038 0 0 0 7.85 8.19h53.39a7.963 7.963 0 0 0 7.76-8.19V460h144v28.81a7.963 7.963 0 0 0 7.76 8.19h53.39a8.038 8.038 0 0 0 7.85-8.19V384.17a36.276 36.276 0 0 0-11.1-26.177ZM171.641 300.4a11.2 11.2 0 0 1 10.169-7.4h152.15a11.176 11.176 0 0 1 10.159 7.4l17.515 47.6H154.126ZM131 386.33a20.157 20.157 0 0 1 7.08-15.45c.094-.079.148.01.238-.074l7.459-6.806h223.59l5.079 5.263c.116.124.161.159.285.276A20.03 20.03 0 0 1 381 384.17V444H131ZM168 481h-37v-21h37Zm176 0v-21h37v21Z"
   fill="#7b7b7b"
   id="path11" />
      <path
   d="M170.49 383h-4.62a23.457 23.457 0 0 0-16.536 7.083A23.386 23.386 0 0 0 165.87 430h4.62a23.124 23.124 0 0 0 16.537-6.733A23.635 23.635 0 0 0 170.49 383Zm5.223 28.953A7.225 7.225 0 0 1 170.49 414h-4.62a7.292 7.292 0 0 1-7.38-7.27 7.737 7.737 0 0 1 2.157-5.394A7.511 7.511 0 0 1 165.87 399h4.62a7.54 7.54 0 0 1 7.38 7.56 7.735 7.735 0 0 1-2.157 5.393ZM346.13 383h-4.62a23.462 23.462 0 0 0-16.537 7.083A23.387 23.387 0 0 0 341.51 430h4.62a23.118 23.118 0 0 0 16.536-6.733A23.635 23.635 0 0 0 346.13 383Zm5.223 28.954A7.229 7.229 0 0 1 346.13 414h-4.62a7.291 7.291 0 0 1-7.38-7.27 7.735 7.735 0 0 1 2.157-5.393A7.508 7.508 0 0 1 341.51 399h4.62a7.541 7.541 0 0 1 7.38 7.56 7.737 7.737 0 0 1-2.157 5.394ZM304 392a8 8 0 0 0-8-8h-81a8 8 0 0 0-8 8v30a8 8 0 0 0 8 8h81a8 8 0 0 0 8-8Zm-15 22h-66v-14h66Z"
   fill="#7b7b7b"
   id="path12" />
    </g>
  </g>
</svg>
