<?xml version="1.0" encoding="UTF-8" standalone="no"?>
<svg
   version="1.1"
   width="64"
   height="64"
   x="0"
   y="0"
   viewBox="0 0 64 64"
   style="enable-background:new 0 0 64 64"
   xml:space="preserve"
   class=""
   id="svg13"
   sodipodi:docname="garage-64x64.svg"
   inkscape:version="1.4.2 (ebf0e940, 2025-05-08)"
   inkscape:export-filename="favicon-192x192.png"
   inkscape:export-xdpi="36"
   inkscape:export-ydpi="36"
   xmlns:inkscape="http://www.inkscape.org/namespaces/inkscape"
   xmlns:sodipodi="http://sodipodi.sourceforge.net/DTD/sodipodi-0.dtd"
   xmlns="http://www.w3.org/2000/svg"
   xmlns:svg="http://www.w3.org/2000/svg"><defs
   id="defs13" /><sodipodi:namedview
   id="namedview13"
   pagecolor="#ffffff"
   bordercolor="#000000"
   borderopacity="0.25"
   inkscape:showpageshadow="2"
   inkscape:pageopacity="0.0"
   inkscape:pagecheckerboard="0"
   inkscape:deskcolor="#d1d1d1"
   inkscape:zoom="13.89"
   inkscape:cx="28.365731"
   inkscape:cy="28.041757"
   inkscape:window-width="2496"
   inkscape:window-height="1458"
   inkscape:window-x="72"
   inkscape:window-y="31"
   inkscape:window-maximized="0"
   inkscape:current-layer="g12" />
  <g
   id="g13">
    <g
   data-name="Group 2"
   id="g12">
      <path
   d="m 62.954957,19.029552 v 43.88255 H 56.356994 V 25.355036 H 7.6431687 V 62.912102 H 1.0452056 V 19.029552 L 32.000081,1.0626261 Z"
   fill="#e8e8e8"
   id="path1" />
      <path
   d="M 7.6431687,25.355036 H 56.356994 v 6.326813 H 7.6431687 Z"
   fill="#f8f8e8"
   id="path2" />
      <path
   d="m 50.444732,58.031835 v 4.880267 h -7.395868 v -4.880267 z"
   fill="#606060"
   id="path3" />
      <path
   d="m 50.444732,54.903629 v 3.128206 H 13.555431 v -8.732409 a 3.914865,3.7539797 0 0 1 1.382483,-2.862541 l 1.357548,-1.211433 h 31.930094 v 0.04113 l 0.991842,1.017497 a 3.9089084,3.7482679 0 0 1 1.227334,2.72838 z m -3.82884,-2.87848 a 2.1306585,2.0430969 0 0 0 -2.13052,-2.044293 h -0.639988 a 2.1319053,2.0442925 0 0 0 0,4.088585 h 0.639988 a 2.1306585,2.0430969 0 0 0 2.13052,-2.044292 z m -8.987525,1.999129 V 50.024691 H 26.371796 v 3.999587 z M 22.285298,52.025149 a 2.1306585,2.0430969 0 0 0 -2.13052,-2.044293 h -0.639987 a 2.1319053,2.0442925 0 0 0 0,4.088585 h 0.639987 a 2.1306585,2.0430969 0 0 0 2.13052,-2.044292 z"
   fill="#b8b8b8"
   id="path4" />
      <path
   d="m 45.245876,37.514525 2.97968,7.710927 H 16.295462 l 2.97968,-7.710927 a 2.6102332,2.5029631 0 0 1 2.447743,-1.632512 h 21.076633 a 2.6070472,2.4999079 0 0 1 2.446358,1.632512 z"
   fill="#bfdbe9"
   id="path5" />
      <path
   d="m 44.485372,49.980856 a 2.1319053,2.0442925 0 0 1 0,4.088585 h -0.639988 a 2.1319053,2.0442925 0 0 1 0,-4.088585 z"
   fill="#f8f8e8"
   id="path6" />
      <path
   d="m 26.371796,50.024691 h 11.256571 v 3.999587 H 26.371796 Z"
   fill="#b8b8b8"
   id="path7" />
      <path
   d="m 20.154778,49.980856 a 2.1319053,2.0442925 0 0 1 0,4.088585 h -0.639987 a 2.1319053,2.0442925 0 0 1 0,-4.088585 z"
   fill="#f8f8e8"
   id="path8" />
      <path
   d="m 20.951299,58.073013 v 4.839089 h -7.395868 v -4.880267 h 7.395868 z"
   fill="#606060"
   id="path9" />
      <path
   d="M 63.497001,18.120446 32.558062,0.15352035 a 1.0943503,1.0493769 0 0 0 -1.139787,0 L 0.49941574,18.120446 A 1.0762035,1.0319758 0 0 0 7.2443644e-4,19.029552 v 43.88255 C 7.2443644e-4,63.499083 0.43320064,64 1.0452056,64 h 6.5979631 a 1.1111119,1.0654496 0 0 0 1.084653,-1.087898 V 32.784359 H 55.272341 V 62.912102 A 1.1111119,1.0654496 0 0 0 56.356994,64 h 6.597963 c 0.612005,0 1.044481,-0.500917 1.044481,-1.087898 V 19.029552 A 1.0804978,1.0360936 0 0 0 63.497001,18.120446 Z M 8.7278217,30.659039 V 26.408398 H 55.272341 v 4.250641 z M 61.783033,61.87468 H 57.488747 V 25.355036 A 1.1367391,1.0900236 0 0 0 56.356994,24.283078 H 7.6431687 A 1.1367391,1.0900236 0 0 0 6.5114161,25.355036 V 61.87468 H 2.2171301 V 19.628489 L 32.000081,2.3048758 61.783033,19.628489 Z"
   fill="#b8860b"
   id="path10" />
      <path
   d="m 49.213652,44.724142 -2.928149,-7.59922 A 3.7502969,3.5961747 0 0 0 42.799518,34.776847 H 21.722885 a 3.7540371,3.5997612 0 0 0 -3.486827,2.34715 l -2.888253,7.484847 -1.137016,1.029186 a 5.0160031,4.8098654 0 0 0 -1.742782,3.661396 V 62.912102 A 1.1134668,1.0677078 0 0 0 13.555431,64 h 7.395868 a 1.1030774,1.0577453 0 0 0 1.074957,-1.087898 v -3.826905 h 19.947651 v 3.826905 A 1.1030774,1.0577453 0 0 0 43.048864,64 h 7.395868 a 1.1134668,1.0677078 0 0 0 1.087424,-1.087898 V 49.012507 A 5.0251457,4.8186323 0 0 0 49.994525,45.535345 Z M 20.314216,37.885128 a 1.551484,1.4877242 0 0 1 1.408669,-0.982961 h 21.076633 a 1.5481594,1.4845362 0 0 1 1.407274,0.982961 l 2.426277,6.322827 H 17.88795 Z m -5.629804,11.414298 a 2.7922556,2.677505 0 0 1 0.98076,-2.052263 c 0.01308,-0.01063 0.0205,0.0011 0.03302,-0.0096 l 1.033255,-0.904058 h 30.972884 l 0.703576,0.699092 c 0.01607,0.01647 0.02228,0.02115 0.03945,0.03666 a 2.7746628,2.6606353 0 0 1 0.868421,1.943478 v 7.947369 H 14.684445 Z M 19.80985,61.87468 h -5.125438 v -2.789483 h 5.125438 z m 24.380463,0 v -2.789483 h 5.125438 v 2.789483 z"
   fill="#7b7b7b"
   id="path11" />
      <path
   d="m 20.154778,48.857093 h -0.639987 a 3.2493892,3.1158523 0 0 0 -2.290655,0.940848 3.2395539,3.1064212 0 0 0 2.290655,5.302281 h 0.639987 a 3.2032603,3.0716191 0 0 0 2.290789,-0.894367 3.2740467,3.1394965 0 0 0 -2.290789,-5.348762 z m 0.723513,3.845895 a 1.0008457,0.95971492 0 0 1 -0.723513,0.271913 h -0.639987 a 1.0101269,0.9686147 0 0 1 -1.022317,-0.965692 1.0717707,1.0277252 0 0 1 0.298794,-0.716499 1.0404639,0.99770502 0 0 1 0.723523,-0.310296 h 0.639987 a 1.0444812,1.0015572 0 0 1 1.022318,1.004213 1.0714936,1.0274595 0 0 1 -0.298805,0.716361 z m 23.607081,-3.845895 h -0.639988 a 3.2500819,3.1165165 0 0 0 -2.290799,0.940848 3.2396925,3.106554 0 0 0 2.290799,5.302281 h 0.639988 a 3.2024291,3.0708221 0 0 0 2.290655,-0.894367 3.2740467,3.1394965 0 0 0 -2.290655,-5.348762 z m 0.723512,3.846033 a 1.0013998,0.96024625 0 0 1 -0.723512,0.271775 h -0.639988 a 1.0099884,0.96848187 0 0 1 -1.022317,-0.965692 1.0714936,1.0274595 0 0 1 0.298794,-0.716371 1.0400484,0.99730652 0 0 1 0.723523,-0.310424 h 0.639988 a 1.0446197,1.00169 0 0 1 1.022317,1.004213 1.0717707,1.0277252 0 0 1 -0.298805,0.716499 z m -6.559586,-2.65054 a 1.1082028,1.0626601 0 0 0 -1.108202,-1.06266 H 26.320542 a 1.1082028,1.0626601 0 0 0 -1.108203,1.06266 v 3.984975 a 1.1082028,1.0626601 0 0 0 1.108203,1.062661 h 11.220554 a 1.1082028,1.0626601 0 0 0 1.108202,-1.062661 z m -2.07788,2.922315 h -9.142673 v -1.859655 h 9.142673 z"
   fill="#7b7b7b"
   id="path12" />
    </g>
  </g>
</svg>
